HIERARCHY
ROOT mixamorig:Hips
{
	OFFSET -0.000008 104.274872 1.554316
	CHANNELS 6 Xposition Yposition Zposition Xrotation Yrotation Zrotation
	JOINT mixamorig:Spine
	{
		OFFSET -0.000005 10.181595 0.131519
		CHANNELS 6 Xposition Yposition Zposition Xrotation Yrotation Zrotation
		JOINT mixamorig:Spine1
		{
			OFFSET -0.000000 9.893959 -1.470707
			CHANNELS 6 Xposition Yposition Zposition Xrotation Yrotation Zrotation
			JOINT mixamorig:Spine2
			{
				OFFSET -0.000000 9.220757 -1.370641
				CHANNELS 6 Xposition Yposition Zposition Xrotation Yrotation Zrotation
				JOINT mixamorig:Neck
				{
					OFFSET 0.000001 16.740417 -2.049036
					CHANNELS 6 Xposition Yposition Zposition Xrotation Yrotation Zrotation
					JOINT mixamorig:Head
					{
						OFFSET 0.000000 9.617874 1.685006
						CHANNELS 6 Xposition Yposition Zposition Xrotation Yrotation Zrotation
						JOINT mixamorig:HeadTop_End
						{
							OFFSET 0.000002 22.037354 7.501101
							CHANNELS 6 Xposition Yposition Zposition Xrotation Yrotation Zrotation
							End Site
							{
								OFFSET 0.000168 2310.654297 -282.823242
							}
						}
					}
				}
				JOINT mixamorig:RightShoulder
				{
					OFFSET -4.569970 11.014908 -2.160885
					CHANNELS 6 Xposition Yposition Zposition Xrotation Yrotation Zrotation
					JOINT mixamorig:RightArm
					{
						OFFSET -10.592851 -0.524811 -2.232101
						CHANNELS 6 Xposition Yposition Zposition Xrotation Yrotation Zrotation
						JOINT mixamorig:RightForeArm
						{
							OFFSET -27.841511 0.000031 -0.000004
							CHANNELS 6 Xposition Yposition Zposition Xrotation Yrotation Zrotation
							JOINT mixamorig:RightHand
							{
								OFFSET -28.328831 -0.000015 0.000015
								CHANNELS 6 Xposition Yposition Zposition Xrotation Yrotation Zrotation
								JOINT mixamorig:RightHandThumb1
								{
									OFFSET -2.464806 -1.573990 2.681852
									CHANNELS 6 Xposition Yposition Zposition Xrotation Yrotation Zrotation
									JOINT mixamorig:RightHandThumb2
									{
										OFFSET -3.215179 -1.872803 1.924282
										CHANNELS 6 Xposition Yposition Zposition Xrotation Yrotation Zrotation
										JOINT mixamorig:RightHandThumb3
										{
											OFFSET -2.654831 -1.527969 1.512609
											CHANNELS 6 Xposition Yposition Zposition Xrotation Yrotation Zrotation
											JOINT mixamorig:RightHandThumb4
											{
												OFFSET -2.018814 -1.152008 1.108052
												CHANNELS 6 Xposition Yposition Zposition Xrotation Yrotation Zrotation
												End Site
												{
													OFFSET -188.809540 -114.533607 132.431396
												}
											}
										}
									}
								}
								JOINT mixamorig:RightHandIndex1
								{
									OFFSET -9.108284 -0.517868 2.259835
									CHANNELS 6 Xposition Yposition Zposition Xrotation Yrotation Zrotation
									JOINT mixamorig:RightHandIndex2
									{
										OFFSET -3.699989 0.000000 0.001215
										CHANNELS 6 Xposition Yposition Zposition Xrotation Yrotation Zrotation
										JOINT mixamorig:RightHandIndex3
										{
											OFFSET -2.850006 0.000031 -0.000522
											CHANNELS 6 Xposition Yposition Zposition Xrotation Yrotation Zrotation
											JOINT mixamorig:RightHandIndex4
											{
												OFFSET -2.772186 -0.000015 -0.000020
												CHANNELS 6 Xposition Yposition Zposition Xrotation Yrotation Zrotation
												End Site
												{
													OFFSET -277.218445 0.000000 -0.050231
												}
											}
										}
									}
								}
								JOINT mixamorig:RightHandMiddle1
								{
									OFFSET -9.532516 -0.000031 -0.000023
									CHANNELS 6 Xposition Yposition Zposition Xrotation Yrotation Zrotation
									JOINT mixamorig:RightHandMiddle2
									{
										OFFSET -3.700005 -0.000015 0.003713
										CHANNELS 6 Xposition Yposition Zposition Xrotation Yrotation Zrotation
										JOINT mixamorig:RightHandMiddle3
										{
											OFFSET -2.949974 0.000015 -0.002054
											CHANNELS 6 Xposition Yposition Zposition Xrotation Yrotation Zrotation
											JOINT mixamorig:RightHandMiddle4
											{
												OFFSET -2.946640 0.000000 -0.000156
												CHANNELS 6 Xposition Yposition Zposition Xrotation Yrotation Zrotation
												End Site
												{
													OFFSET -294.664337 0.000000 -0.113670
												}
											}
										}
									}
								}
								JOINT mixamorig:RightHandRing1
								{
									OFFSET -9.103600 -0.043076 -1.865134
									CHANNELS 6 Xposition Yposition Zposition Xrotation Yrotation Zrotation
									JOINT mixamorig:RightHandRing2
									{
										OFFSET -3.379288 0.000000 -0.001055
										CHANNELS 6 Xposition Yposition Zposition Xrotation Yrotation Zrotation
										JOINT mixamorig:RightHandRing3
										{
											OFFSET -2.889687 -0.000015 0.000379
											CHANNELS 6 Xposition Yposition Zposition Xrotation Yrotation Zrotation
											JOINT mixamorig:RightHandRing4
											{
												OFFSET -2.638809 -0.000015 0.000941
												CHANNELS 6 Xposition Yposition Zposition Xrotation Yrotation Zrotation
												End Site
												{
													OFFSET -263.880371 0.000000 0.516020
												}
											}
										}
									}
								}
								JOINT mixamorig:RightHandPinky1
								{
									OFFSET -8.076683 -0.486710 -3.806280
									CHANNELS 6 Xposition Yposition Zposition Xrotation Yrotation Zrotation
									JOINT mixamorig:RightHandPinky2
									{
										OFFSET -3.600014 -0.000015 -0.003747
										CHANNELS 6 Xposition Yposition Zposition Xrotation Yrotation Zrotation
										JOINT mixamorig:RightHandPinky3
										{
											OFFSET -2.099983 0.000000 -0.005739
											CHANNELS 6 Xposition Yposition Zposition Xrotation Yrotation Zrotation
											JOINT mixamorig:RightHandPinky4
											{
												OFFSET -2.115768 -0.000031 -0.003680
												CHANNELS 6 Xposition Yposition Zposition Xrotation Yrotation Zrotation
												End Site
												{
													OFFSET -211.577087 0.000000 -0.350686
												}
											}
										}
									}
								}
							}
						}
					}
				}
				JOINT mixamorig:LeftShoulder
				{
					OFFSET 4.570447 11.014725 -2.160855
					CHANNELS 6 Xposition Yposition Zposition Xrotation Yrotation Zrotation
					JOINT mixamorig:LeftArm
					{
						OFFSET 10.592371 -0.524597 -2.232119
						CHANNELS 6 Xposition Yposition Zposition Xrotation Yrotation Zrotation
						JOINT mixamorig:LeftForeArm
						{
							OFFSET 27.841532 -0.000031 0.000026
							CHANNELS 6 Xposition Yposition Zposition Xrotation Yrotation Zrotation
							JOINT mixamorig:LeftHand
							{
								OFFSET 28.328846 -0.000061 0.000022
								CHANNELS 6 Xposition Yposition Zposition Xrotation Yrotation Zrotation
								JOINT mixamorig:LeftHandThumb1
								{
									OFFSET 2.466141 -1.576172 2.681732
									CHANNELS 6 Xposition Yposition Zposition Xrotation Yrotation Zrotation
									JOINT mixamorig:LeftHandThumb2
									{
										OFFSET 3.217812 -1.872070 1.916482
										CHANNELS 6 Xposition Yposition Zposition Xrotation Yrotation Zrotation
										JOINT mixamorig:LeftHandThumb3
										{
											OFFSET 2.656029 -1.528778 1.514513
											CHANNELS 6 Xposition Yposition Zposition Xrotation Yrotation Zrotation
											JOINT mixamorig:LeftHandThumb4
											{
												OFFSET 2.020889 -1.154053 1.115139
												CHANNELS 6 Xposition Yposition Zposition Xrotation Yrotation Zrotation
												End Site
												{
													OFFSET 190.885437 -115.081749 130.048782
												}
											}
										}
									}
								}
								JOINT mixamorig:LeftHandIndex1
								{
									OFFSET 9.109314 -0.518021 2.259871
									CHANNELS 6 Xposition Yposition Zposition Xrotation Yrotation Zrotation
									JOINT mixamorig:LeftHandIndex2
									{
										OFFSET 3.699989 0.000000 -0.000322
										CHANNELS 6 Xposition Yposition Zposition Xrotation Yrotation Zrotation
										JOINT mixamorig:LeftHandIndex3
										{
											OFFSET 2.850006 0.000000 0.000352
											CHANNELS 6 Xposition Yposition Zposition Xrotation Yrotation Zrotation
											JOINT mixamorig:LeftHandIndex4
											{
												OFFSET 2.774864 -0.000031 -0.000027
												CHANNELS 6 Xposition Yposition Zposition Xrotation Yrotation Zrotation
												End Site
												{
													OFFSET 277.486267 0.000000 -0.009857
												}
											}
										}
									}
								}
								JOINT mixamorig:LeftHandMiddle1
								{
									OFFSET 9.533394 0.000061 0.000044
									CHANNELS 6 Xposition Yposition Zposition Xrotation Yrotation Zrotation
									JOINT mixamorig:LeftHandMiddle2
									{
										OFFSET 3.699989 -0.000015 -0.000231
										CHANNELS 6 Xposition Yposition Zposition Xrotation Yrotation Zrotation
										JOINT mixamorig:LeftHandMiddle3
										{
											OFFSET 2.949997 -0.000015 -0.000059
											CHANNELS 6 Xposition Yposition Zposition Xrotation Yrotation Zrotation
											JOINT mixamorig:LeftHandMiddle4
											{
												OFFSET 2.952896 0.000031 0.000063
												CHANNELS 6 Xposition Yposition Zposition Xrotation Yrotation Zrotation
												End Site
												{
													OFFSET 295.289337 0.000000 0.022810
												}
											}
										}
									}
								}
								JOINT mixamorig:LeftHandRing1
								{
									OFFSET 9.104523 -0.042999 -1.865074
									CHANNELS 6 Xposition Yposition Zposition Xrotation Yrotation Zrotation
									JOINT mixamorig:LeftHandRing2
									{
										OFFSET 3.150009 -0.000031 0.000043
										CHANNELS 6 Xposition Yposition Zposition Xrotation Yrotation Zrotation
										JOINT mixamorig:LeftHandRing3
										{
											OFFSET 2.949982 -0.000015 0.000040
											CHANNELS 6 Xposition Yposition Zposition Xrotation Yrotation Zrotation
											JOINT mixamorig:LeftHandRing4
											{
												OFFSET 2.644348 0.000000 0.000057
												CHANNELS 6 Xposition Yposition Zposition Xrotation Yrotation Zrotation
												End Site
												{
													OFFSET 264.434631 0.000000 0.012105
												}
											}
										}
									}
								}
								JOINT mixamorig:LeftHandPinky1
								{
									OFFSET 8.077789 -0.486847 -3.806259
									CHANNELS 6 Xposition Yposition Zposition Xrotation Yrotation Zrotation
									JOINT mixamorig:LeftHandPinky2
									{
										OFFSET 3.599953 0.000031 0.014727
										CHANNELS 6 Xposition Yposition Zposition Xrotation Yrotation Zrotation
										JOINT mixamorig:LeftHandPinky3
										{
											OFFSET 2.100021 0.000015 0.007705
											CHANNELS 6 Xposition Yposition Zposition Xrotation Yrotation Zrotation
											JOINT mixamorig:LeftHandPinky4
											{
												OFFSET 2.125504 0.000031 0.007517
												CHANNELS 6 Xposition Yposition Zposition Xrotation Yrotation Zrotation
												End Site
												{
													OFFSET 212.550781 0.000000 0.625752
												}
											}
										}
									}
								}
							}
						}
					}
				}
			}
		}
	}
	JOINT mixamorig:RightUpLeg
	{
		OFFSET -8.207787 -6.751648 -1.599560
		CHANNELS 6 Xposition Yposition Zposition Xrotation Yrotation Zrotation
		JOINT mixamorig:RightLeg
		{
			OFFSET -0.000002 -44.370117 0.345942
			CHANNELS 6 Xposition Yposition Zposition Xrotation Yrotation Zrotation
			JOINT mixamorig:RightFoot
			{
				OFFSET 0.000003 -44.423679 -3.043532
				CHANNELS 6 Xposition Yposition Zposition Xrotation Yrotation Zrotation
				JOINT mixamorig:RightToeBase
				{
					OFFSET -0.000002 -8.728671 10.710558
					CHANNELS 6 Xposition Yposition Zposition Xrotation Yrotation Zrotation
					JOINT mixamorig:RightToe_End
					{
						OFFSET -0.000001 -0.000679 9.278119
						CHANNELS 6 Xposition Yposition Zposition Xrotation Yrotation Zrotation
						End Site
						{
							OFFSET 0.000000 -0.067690 927.812134
						}
					}
				}
			}
		}
	}
	JOINT mixamorig:LeftUpLeg
	{
		OFFSET 8.207793 -6.751686 -1.599556
		CHANNELS 6 Xposition Yposition Zposition Xrotation Yrotation Zrotation
		JOINT mixamorig:LeftLeg
		{
			OFFSET -0.000004 -44.370014 0.346954
			CHANNELS 6 Xposition Yposition Zposition Xrotation Yrotation Zrotation
			JOINT mixamorig:LeftFoot
			{
				OFFSET -0.000001 -44.423672 -3.044401
				CHANNELS 6 Xposition Yposition Zposition Xrotation Yrotation Zrotation
				JOINT mixamorig:LeftToeBase
				{
					OFFSET -0.000002 -8.728669 10.710558
					CHANNELS 6 Xposition Yposition Zposition Xrotation Yrotation Zrotation
					JOINT mixamorig:LeftToe_End
					{
						OFFSET -0.000003 -0.000679 9.278133
						CHANNELS 6 Xposition Yposition Zposition Xrotation Yrotation Zrotation
						End Site
						{
							OFFSET 0.000000 -0.068021 927.813477
						}
					}
				}
			}
		}
	}
}
MOTION
Frames: 3
Frame Time: 0.033333
0.000006 104.270477 1.554256 0.000010 0.000003 -0.000113 -0.000005 10.181587 0.131522 0.000001 -0.000003 0.000084 -0.000000 9.893967 -1.470711 0.000001 0.000000 -0.000000 -0.000000 9.220802 -1.370642 0.000000 -0.000000 -0.000000 0.000001 16.740433 -2.049030 0.000000 -0.000000 -0.000000 0.000000 9.617859 1.685014 0.000000 0.000000 0.000000 0.000002 22.037384 7.501101 0.000000 -0.000000 0.000000 -4.569968 11.014880 -2.160881 0.000008 0.000001 -0.000038 -10.592886 -0.524717 -2.231948 74.541229 19.654807 -15.018877 -27.841518 0.000009 0.000547 -50.367744 118.966377 77.161494 -28.328819 0.000004 0.000023 -0.000319 -0.000044 0.000006 -2.464415 -1.573829 2.682344 -43.251094 -158.856594 0.713060 -3.215263 -1.872545 1.924655 152.498904 32.991798 14.987831 -2.654958 -1.527911 1.513085 147.802247 26.539482 -39.308470 -2.018834 -1.152016 1.108048 -0.000006 -0.000001 0.000002 -9.108391 -0.517560 2.260137 102.265171 15.647685 -19.407790 -3.700078 0.000318 0.001530 99.248051 14.479613 -16.965521 -2.850093 0.000368 -0.000216 100.946173 11.483694 -13.894649 -2.772176 -0.000017 -0.000016 0.000001 0.000000 -0.000001 -9.532598 0.000254 0.000291 104.245988 15.771241 -20.374803 -3.700072 0.000310 0.004016 103.186366 14.018016 -17.508794 -2.950064 0.000330 -0.001760 105.288329 11.799316 -15.409358 -2.946630 0.000018 -0.000157 0.000001 0.000000 -0.000001 -9.103716 -0.042772 -1.864815 106.032594 16.654836 -21.938955 -3.379351 0.000303 -0.000742 104.497632 11.826951 -15.261028 -2.889766 0.000345 0.000705 108.451533 8.206362 -11.435640 -2.638822 0.000001 0.000941 0.000000 0.000000 0.000002 -8.076777 -0.486415 -3.805950 103.217894 19.047770 -23.719230 -3.600046 0.000272 -0.003430 107.486250 10.723516 -14.087210 -2.100028 0.000298 -0.005394 109.819873 5.648943 -7.720890 -2.115775 -0.000026 -0.003680 -0.000002 0.000000 -0.000000 4.570446 11.014691 -2.160851 -0.000018 0.000010 -0.000021 10.592375 -0.524516 -2.232316 67.633414 -2.489332 1.667739 27.841827 0.000112 -0.000221 101.590820 -63.501341 74.371157 28.328856 -0.000028 0.000021 0.000020 -0.000089 -0.000000 2.465867 -1.576056 2.681890 -53.391418 178.345610 29.775014 3.217818 -1.871784 1.916373 157.207486 -28.166681 16.689511 2.656095 -1.528670 1.514474 136.938572 -28.554262 50.996696 2.020884 -1.154058 1.115154 -0.000001 0.000005 0.000002 9.109379 -0.517862 2.259734 81.549030 -16.081460 13.881230 3.700034 0.000135 -0.000467 80.929532 -17.488039 14.964338 2.850052 0.000179 0.000191 79.557046 -14.386325 11.995289 2.774887 -0.000015 -0.000026 0.000001 0.000001 -0.000003 9.533453 0.000205 -0.000099 82.986225 -15.255152 13.502858 3.700046 0.000157 -0.000369 84.168483 -15.338517 13.864477 2.950059 0.000159 -0.000213 84.042172 -17.653271 15.933269 2.952866 -0.000033 0.000061 0.000000 -0.000000 -0.000000 9.104580 -0.042854 -1.865224 81.892056 -14.428478 12.536653 3.150080 0.000183 -0.000109 86.489155 -12.981292 12.217018 2.950027 0.000177 -0.000081 88.767099 -13.846370 13.556115 2.644329 0.000015 0.000050 -0.000000 -0.000001 -0.000001 8.077827 -0.486736 -3.806413 73.303953 -15.722462 12.171702 3.599998 0.000169 0.014577 74.689341 -11.635115 9.275742 2.100052 0.000176 0.007535 78.624923 -10.637322 9.109136 2.125500 -0.000027 0.007512 -0.000002 0.000002 -0.000005 -8.207786 -6.751667 -1.599560 -0.077001 -0.000003 0.000080 -0.000002 -44.370110 0.345938 0.153719 -0.000000 -0.000000 0.000000 -44.423679 -3.043532 -0.076700 0.000000 -0.000002 -0.000006 -8.728667 10.710559 -0.000009 -0.000000 -0.000000 -0.000001 -0.000679 9.278123 0.000000 -0.000000 -0.000000 8.207792 -6.751710 -1.599556 -0.074518 -0.000003 0.000081 -0.000002 -44.370014 0.346960 0.148822 0.000002 0.000000 -0.000001 -44.423664 -3.044403 -0.074314 0.000000 -0.000002 -0.000004 -8.728671 10.710558 0.000007 -0.000000 -0.000000 0.000000 -0.000680 9.278137 -0.000000 0.000000 -0.000001 
0.000006 104.270477 1.554256 0.000010 0.000003 -0.000113 -0.000005 10.181587 0.131522 0.000001 -0.000003 0.000084 -0.000000 9.893967 -1.470711 0.000001 0.000000 -0.000000 -0.000000 9.220802 -1.370642 0.000000 -0.000000 -0.000000 0.000001 16.740433 -2.049030 0.000000 -0.000000 -0.000000 0.000000 9.617859 1.685014 0.000000 0.000000 0.000000 0.000002 22.037384 7.501101 0.000000 -0.000000 0.000000 -4.569968 11.014880 -2.160881 0.000008 0.000001 -0.000038 -10.592883 -0.524711 -2.231977 73.274276 17.105242 -12.762988 -27.841511 0.000016 0.000540 -49.577082 116.916993 73.915645 -28.328835 0.000021 0.000024 -0.000322 -0.000044 0.000006 -2.464420 -1.573755 2.682312 -49.366637 -162.397310 -13.773355 -3.215258 -1.872549 1.924641 149.939004 32.730229 17.150202 -2.654958 -1.527882 1.513068 147.903621 27.331309 -31.358539 -2.018831 -1.152004 1.108051 -0.000002 -0.000004 0.000004 -9.108397 -0.517548 2.260130 100.574720 14.978770 -18.043381 -3.700067 0.000321 0.001540 100.586140 13.128958 -15.750852 -2.850073 0.000373 -0.000225 102.010672 10.570946 -13.036000 -2.772149 -0.000015 -0.000022 -0.000002 0.000000 0.000000 -9.532593 0.000272 0.000284 102.994868 14.779414 -18.695380 -3.700078 0.000329 0.004021 105.875486 12.025268 -15.753276 -2.950069 0.000321 -0.001721 108.707310 10.913123 -15.164294 -2.946637 0.000014 -0.000160 -0.000000 -0.000000 -0.000001 -9.103712 -0.042749 -1.864808 104.058799 15.441564 -19.653161 -3.379336 0.000320 -0.000761 104.185486 8.370756 -10.759450 -2.889752 0.000337 0.000704 109.210893 6.162448 -8.728567 -2.638801 0.000001 0.000941 0.000001 -0.000001 -0.000000 -8.076762 -0.486383 -3.805955 103.023718 17.588260 -21.832283 -3.600047 0.000296 -0.003449 104.469909 7.619422 -9.372272 -2.100004 0.000329 -0.005435 105.415500 3.570665 -4.407761 -2.115774 -0.000050 -0.003673 -0.000000 -0.000000 -0.000007 4.570446 11.014691 -2.160851 -0.000018 0.000010 -0.000021 10.592361 -0.524541 -2.232270 68.496777 10.932844 -7.455527 27.841831 0.000100 -0.000212 102.018294 -65.310214 76.736240 28.328846 -0.000044 0.000015 0.000018 -0.000090 0.000000 2.466110 -1.576160 2.681903 -24.783428 161.211644 -42.603237 3.217856 -1.871831 1.916404 164.439700 -23.713585 33.297326 2.656103 -1.528725 1.514500 133.854113 -29.638042 63.808365 2.020898 -1.154080 1.115161 0.000002 0.000002 0.000006 9.109385 -0.517867 2.259734 83.037458 -19.091000 16.923814 3.700016 0.000157 -0.000469 80.712632 -13.997018 11.925055 2.850044 0.000189 0.000190 79.480951 -10.347483 8.609168 2.774879 -0.000031 -0.000023 -0.000001 0.000002 -0.000003 9.533475 0.000196 -0.000074 83.088350 -18.330947 16.264706 3.700045 0.000173 -0.000369 84.683158 -12.397949 11.302739 2.950055 0.000173 -0.000215 85.253226 -11.045036 10.173366 2.952856 -0.000016 0.000060 -0.000000 -0.000002 0.000001 9.104589 -0.042857 -1.865215 83.409048 -18.097394 16.156087 3.150049 0.000200 -0.000095 88.473804 -12.961782 12.625609 2.950034 0.000184 -0.000098 89.863959 -10.288851 10.266299 2.644323 0.000049 0.000060 -0.000001 0.000002 0.000001 8.077860 -0.486729 -3.806374 78.256168 -20.080032 16.890773 3.600010 0.000177 0.014579 78.791935 -16.804439 14.271136 2.100033 0.000167 0.007553 80.850056 -11.460465 10.180900 2.125530 -0.000022 0.007518 -0.000002 -0.000003 -0.000001 -8.207786 -6.751667 -1.599560 -0.077001 -0.000003 0.000080 -0.000002 -44.370110 0.345938 0.153719 -0.000000 -0.000000 0.000000 -44.423679 -3.043532 -0.076700 0.000000 -0.000002 -0.000006 -8.728667 10.710559 -0.000009 -0.000000 -0.000000 -0.000001 -0.000679 9.278123 0.000000 -0.000000 -0.000000 8.207792 -6.751710 -1.599556 -0.074518 -0.000003 0.000081 -0.000002 -44.370014 0.346960 0.148822 0.000002 0.000000 -0.000001 -44.423664 -3.044403 -0.074314 0.000000 -0.000002 -0.000004 -8.728671 10.710558 0.000007 -0.000000 -0.000000 0.000000 -0.000680 9.278137 -0.000000 0.000000 -0.000001 
0.000006 104.270477 1.554256 0.000010 0.000003 -0.000113 -0.000005 10.181587 0.131522 0.000001 -0.000003 0.000084 -0.000000 9.893967 -1.470711 0.000001 0.000000 -0.000000 -0.000000 9.220802 -1.370642 0.000000 -0.000000 -0.000000 0.000001 16.740433 -2.049030 0.000000 -0.000000 -0.000000 0.000000 9.617859 1.685014 0.000000 0.000000 0.000000 0.000002 22.037384 7.501101 0.000000 -0.000000 0.000000 -4.569968 11.014880 -2.160881 0.000008 0.000001 -0.000038 -10.592882 -0.524708 -2.231983 72.704399 16.224851 -11.977763 -27.841516 0.000001 0.000565 -48.319378 114.488860 69.771059 -28.328827 0.000021 0.000032 -0.000317 -0.000043 0.000006 -2.464399 -1.573775 2.682306 -48.043988 -160.400791 -10.525876 -3.215258 -1.872545 1.924616 150.101412 32.581744 15.744209 -2.654963 -1.527852 1.513063 146.830626 27.380446 -32.589281 -2.018830 -1.151997 1.108073 -0.000005 -0.000003 0.000000 -9.108371 -0.517535 2.260126 100.632961 14.522989 -17.516257 -3.700064 0.000329 0.001522 100.564796 12.675802 -15.202698 -2.850089 0.000373 -0.000253 101.195844 10.174542 -12.369044 -2.772170 -0.000017 -0.000021 -0.000003 0.000000 -0.000000 -9.532577 0.000276 0.000276 103.183613 14.016895 -17.803431 -3.700062 0.000324 0.004030 105.903620 11.424206 -14.972005 -2.950074 0.000342 -0.001748 108.296542 10.627030 -14.658667 -2.946625 0.000000 -0.000158 0.000000 0.000001 0.000000 -9.103695 -0.042757 -1.864815 104.280241 14.850486 -18.978572 -3.379332 0.000337 -0.000771 104.487858 7.898428 -10.209903 -2.889732 0.000342 0.000704 109.174693 6.088985 -8.619644 -2.638802 -0.000002 0.000940 -0.000000 0.000001 0.000000 -8.076737 -0.486385 -3.805941 103.334335 17.005791 -21.225214 -3.600028 0.000290 -0.003446 104.871735 7.175303 -8.866960 -2.100011 0.000328 -0.005420 105.669310 3.442768 -4.260001 -2.115756 -0.000052 -0.003676 0.000000 -0.000000 -0.000005 4.570446 11.014691 -2.160851 -0.000018 0.000010 -0.000021 10.592360 -0.524549 -2.232270 67.578998 12.540258 -8.410115 27.841829 0.000088 -0.000169 102.930623 -66.656458 79.090961 28.328848 -0.000044 0.000029 0.000020 -0.000089 -0.000000 2.466137 -1.576158 2.681897 -19.863922 160.380792 -51.368845 3.217860 -1.871853 1.916409 163.453899 -22.760914 37.679859 2.656121 -1.528705 1.514493 134.979373 -29.163398 61.466471 2.020887 -1.154086 1.115143 -0.000004 0.000003 0.000004 9.109399 -0.517875 2.259728 83.828298 -18.047837 16.216022 3.700038 0.000162 -0.000460 81.292775 -13.114223 11.286207 2.850036 0.000187 0.000214 79.680720 -9.612188 8.024711 2.774873 -0.000017 -0.000025 -0.000000 -0.000000 -0.000000 9.533474 0.000204 -0.000091 83.734813 -17.236496 15.462546 3.700043 0.000173 -0.000374 85.395458 -11.662330 10.763890 2.950047 0.000177 -0.000212 85.321917 -10.243340 9.445796 2.952872 -0.000015 0.000059 -0.000000 -0.000002 0.000000 9.104596 -0.042856 -1.865221 83.817568 -17.127075 15.395974 3.150063 0.000202 -0.000097 89.654033 -13.024308 12.948393 2.950035 0.000196 -0.000094 89.965189 -10.298578 10.294080 2.644311 0.000031 0.000053 -0.000000 -0.000003 -0.000000 8.077863 -0.486729 -3.806391 79.457995 -19.104669 16.427315 3.600001 0.000175 0.014584 78.640175 -16.873279 14.290179 2.100060 0.000181 0.007552 79.029073 -11.293906 9.720852 2.125505 -0.000025 0.007519 -0.000001 0.000000 -0.000004 -8.207786 -6.751667 -1.599560 -0.077001 -0.000003 0.000080 -0.000002 -44.370110 0.345938 0.153719 -0.000000 -0.000000 0.000000 -44.423679 -3.043532 -0.076700 0.000000 -0.000002 -0.000006 -8.728667 10.710559 -0.000009 -0.000000 -0.000000 -0.000001 -0.000679 9.278123 0.000000 -0.000000 -0.000000 8.207792 -6.751710 -1.599556 -0.074518 -0.000003 0.000081 -0.000002 -44.370014 0.346960 0.148822 0.000002 0.000000 -0.000001 -44.423664 -3.044403 -0.074314 0.000000 -0.000002 -0.000004 -8.728671 10.710558 0.000007 -0.000000 -0.000000 0.000000 -0.000680 9.278137 -0.000000 0.000000 -0.000001 
